<mxfile host="65bd71144e">
    <diagram id="TkOUCxGeKZ2T9B5H1i8Y" name="Page-1">
        <mxGraphModel dx="1216" dy="740" grid="1" gridSize="10" guides="1" tooltips="1" connect="1" arrows="1" fold="1" page="1" pageScale="1" pageWidth="850" pageHeight="1100" math="0" shadow="0">
            <root>
                <mxCell id="0"/>
                <mxCell id="1" parent="0"/>
                <mxCell id="13" value="&lt;div style=&quot;font-size: 12px;&quot;&gt;TEJ3M - Unit 4 - 13&lt;/div&gt;&lt;div style=&quot;font-size: 12px;&quot;&gt;Youngwook Go&lt;/div&gt;&lt;div style=&quot;font-size: 12px;&quot;&gt;2023. Dec. 6&lt;/div&gt;&lt;div style=&quot;font-size: 12px;&quot;&gt;&lt;span style=&quot;background-color: initial;&quot;&gt;NAND gate with&lt;/span&gt;&lt;/div&gt;&lt;div style=&quot;&quot;&gt;&lt;span style=&quot;background-color: initial;&quot;&gt;IC chip&lt;/span&gt;&lt;/div&gt;" style="text;html=1;strokeColor=none;fillColor=none;align=center;verticalAlign=middle;whiteSpace=wrap;rounded=0;strokeWidth=2;fontSize=12;" parent="1" vertex="1">
                    <mxGeometry x="40" y="40" width="120" height="80" as="geometry"/>
                </mxCell>
                <mxCell id="58" value="A" style="rounded=0;whiteSpace=wrap;html=1;strokeWidth=2;glass=0;" parent="1" vertex="1">
                    <mxGeometry x="40" y="125" width="30" height="30" as="geometry"/>
                </mxCell>
                <mxCell id="59" value="Output" style="rounded=0;whiteSpace=wrap;html=1;strokeWidth=2;glass=0;" parent="1" vertex="1">
                    <mxGeometry x="100" y="125" width="60" height="30" as="geometry"/>
                </mxCell>
                <mxCell id="60" value="0" style="rounded=0;whiteSpace=wrap;html=1;strokeWidth=2;glass=0;" parent="1" vertex="1">
                    <mxGeometry x="40" y="155" width="30" height="30" as="geometry"/>
                </mxCell>
                <mxCell id="61" value="0" style="rounded=0;whiteSpace=wrap;html=1;strokeWidth=2;glass=0;" parent="1" vertex="1">
                    <mxGeometry x="40" y="185" width="30" height="30" as="geometry"/>
                </mxCell>
                <mxCell id="62" value="1" style="rounded=0;whiteSpace=wrap;html=1;strokeWidth=2;glass=0;" parent="1" vertex="1">
                    <mxGeometry x="100" y="155" width="60" height="30" as="geometry"/>
                </mxCell>
                <mxCell id="63" value="1" style="rounded=0;whiteSpace=wrap;html=1;strokeWidth=2;glass=0;" parent="1" vertex="1">
                    <mxGeometry x="100" y="185" width="60" height="30" as="geometry"/>
                </mxCell>
                <mxCell id="151" style="edgeStyle=none;html=1;exitX=1;exitY=0.5;exitDx=0;exitDy=0;entryX=1;entryY=0.88;entryDx=0;entryDy=0;strokeWidth=2;rounded=0;endArrow=none;endFill=0;" parent="1" source="95" target="149" edge="1">
                    <mxGeometry relative="1" as="geometry">
                        <Array as="points">
                            <mxPoint x="235" y="70"/>
                        </Array>
                    </mxGeometry>
                </mxCell>
                <mxCell id="95" value="" style="pointerEvents=1;verticalLabelPosition=bottom;shadow=0;dashed=0;align=center;html=1;verticalAlign=top;shape=mxgraph.electrical.miscellaneous.batteryStack;rotation=-90;strokeWidth=2;" parent="1" vertex="1">
                    <mxGeometry x="185" y="275" width="100" height="60" as="geometry"/>
                </mxCell>
                <mxCell id="147" style="edgeStyle=none;rounded=0;html=1;exitX=0;exitY=0.5;exitDx=0;exitDy=0;strokeWidth=2;endArrow=none;endFill=0;entryX=0;entryY=0.75;entryDx=0;entryDy=0;entryPerimeter=0;" parent="1" source="99" edge="1">
                    <mxGeometry relative="1" as="geometry">
                        <mxPoint x="555" y="185" as="targetPoint"/>
                        <Array as="points">
                            <mxPoint x="555" y="165"/>
                        </Array>
                    </mxGeometry>
                </mxCell>
                <mxCell id="157" style="edgeStyle=none;shape=connector;rounded=0;html=1;exitX=1;exitY=0.12;exitDx=0;exitDy=0;entryX=1;entryY=0.5;entryDx=0;entryDy=0;labelBackgroundColor=default;strokeColor=default;strokeWidth=2;fontFamily=Helvetica;fontSize=11;fontColor=default;endArrow=none;endFill=0;" parent="1" source="99" target="155" edge="1">
                    <mxGeometry relative="1" as="geometry"/>
                </mxCell>
                <mxCell id="99" value="" style="shape=mxgraph.electrical.electro-mechanical.twoWaySwitch;elSwitchState=2;strokeWidth=2;rotation=-180;" parent="1" vertex="1">
                    <mxGeometry x="340" y="145" width="120" height="40" as="geometry"/>
                </mxCell>
                <mxCell id="111" value="" style="verticalLabelPosition=bottom;shadow=0;dashed=0;align=center;html=1;verticalAlign=top;shape=mxgraph.electrical.opto_electronics.led_2;pointerEvents=1;flipH=1;strokeWidth=2;" parent="1" vertex="1">
                    <mxGeometry x="435" y="340" width="100" height="70" as="geometry"/>
                </mxCell>
                <mxCell id="114" style="edgeStyle=none;rounded=0;html=1;exitX=0;exitY=0.5;exitDx=0;exitDy=0;exitPerimeter=0;entryX=0;entryY=0.5;entryDx=0;entryDy=0;strokeWidth=2;endArrow=none;endFill=0;" parent="1" source="113" target="95" edge="1">
                    <mxGeometry relative="1" as="geometry">
                        <mxPoint x="235" y="380" as="targetPoint"/>
                        <Array as="points">
                            <mxPoint x="235" y="380"/>
                        </Array>
                    </mxGeometry>
                </mxCell>
                <mxCell id="113" value="" style="pointerEvents=1;verticalLabelPosition=bottom;shadow=0;dashed=0;align=center;html=1;verticalAlign=top;shape=mxgraph.electrical.resistors.resistor_2;strokeWidth=2;" parent="1" vertex="1">
                    <mxGeometry x="315" y="370" width="120" height="20" as="geometry"/>
                </mxCell>
                <mxCell id="119" value="&lt;span style=&quot;color: rgba(0, 0, 0, 0); font-family: monospace; font-size: 0px; text-align: start;&quot;&gt;%3CmxGraphModel%3E%3Croot%3E%3CmxCell%20id%3D%220%22%2F%3E%3CmxCell%20id%3D%221%22%20parent%3D%220%22%2F%3E%3CmxCell%20id%3D%222%22%20value%3D%22%22%20style%3D%22pointerEvents%3D1%3BverticalLabelPosition%3Dbottom%3Bshadow%3D0%3Bdashed%3D0%3Balign%3Dcenter%3Bhtml%3D1%3BverticalAlign%3Dtop%3Bshape%3Dmxgraph.electrical.resistors.resistor_2%3BstrokeWidth%3D2%3B%22%20vertex%3D%221%22%20parent%3D%221%22%3E%3CmxGeometry%20x%3D%22440%22%20y%3D%22535%22%20width%3D%22120%22%20height%3D%2220%22%20as%3D%22geometry%22%2F%3E%3C%2FmxCell%3E%3C%2Froot%3E%3C%2FmxGraphModel%3E&lt;/span&gt;&lt;span style=&quot;color: rgba(0, 0, 0, 0); font-family: monospace; font-size: 0px; text-align: start;&quot;&gt;%3CmxGraphModel%3E%3Croot%3E%3CmxCell%20id%3D%220%22%2F%3E%3CmxCell%20id%3D%221%22%20parent%3D%220%22%2F%3E%3CmxCell%20id%3D%222%22%20value%3D%22%22%20style%3D%22pointerEvents%3D1%3BverticalLabelPosition%3Dbottom%3Bshadow%3D0%3Bdashed%3D0%3Balign%3Dcenter%3Bhtml%3D1%3BverticalAlign%3Dtop%3Bshape%3Dmxgraph.electrical.resistors.resistor_2%3BstrokeWidth%3D2%3B%22%20vertex%3D%221%22%20parent%3D%221%22%3E%3CmxGeometry%20x%3D%22440%22%20y%3D%22535%22%20width%3D%22120%22%20height%3D%2220%22%20as%3D%22geometry%22%2F%3E%3C%2FmxCell%3E%3C%2Froot%3E%3C%2FmxGraphModel%3E&lt;/span&gt;" style="ellipse;whiteSpace=wrap;html=1;aspect=fixed;strokeWidth=2;fillColor=#000000;" parent="1" vertex="1">
                    <mxGeometry x="275" y="375" width="10" height="10" as="geometry"/>
                </mxCell>
                <mxCell id="122" value="Input #2" style="text;html=1;strokeColor=none;fillColor=none;align=center;verticalAlign=middle;whiteSpace=wrap;rounded=0;strokeWidth=2;fontSize=14;" parent="1" vertex="1">
                    <mxGeometry x="340" y="120" width="120" height="20" as="geometry"/>
                </mxCell>
                <mxCell id="126" value="Output #1" style="text;html=1;strokeColor=none;fillColor=none;align=center;verticalAlign=bottom;whiteSpace=wrap;rounded=0;strokeWidth=2;fontSize=14;" parent="1" vertex="1">
                    <mxGeometry x="435" y="320" width="100" height="20" as="geometry"/>
                </mxCell>
                <mxCell id="127" value="&lt;span style=&quot;font-size: 14px;&quot;&gt;220&amp;nbsp;Î©&lt;/span&gt;&amp;nbsp;" style="text;html=1;strokeColor=none;fillColor=none;align=center;verticalAlign=middle;whiteSpace=wrap;rounded=0;strokeWidth=2;fontSize=14;" parent="1" vertex="1">
                    <mxGeometry x="315" y="350" width="120" height="20" as="geometry"/>
                </mxCell>
                <mxCell id="128" value="+" style="text;html=1;strokeColor=none;fillColor=none;align=center;verticalAlign=middle;whiteSpace=wrap;rounded=0;strokeWidth=2;fontSize=14;" parent="1" vertex="1">
                    <mxGeometry x="215" y="250" width="20" height="20" as="geometry"/>
                </mxCell>
                <mxCell id="129" value="-" style="text;html=1;strokeColor=none;fillColor=none;align=center;verticalAlign=middle;whiteSpace=wrap;rounded=0;strokeWidth=2;fontSize=14;" parent="1" vertex="1">
                    <mxGeometry x="215" y="340" width="20" height="20" as="geometry"/>
                </mxCell>
                <mxCell id="130" value="5V" style="text;html=1;strokeColor=none;fillColor=none;align=right;verticalAlign=middle;whiteSpace=wrap;rounded=0;strokeWidth=2;fontSize=14;" parent="1" vertex="1">
                    <mxGeometry x="180" y="255" width="20" height="100" as="geometry"/>
                </mxCell>
                <mxCell id="131" value="" style="edgeStyle=none;rounded=0;html=1;exitX=1;exitY=0.5;exitDx=0;exitDy=0;entryX=1;entryY=0.88;entryDx=0;entryDy=0;strokeWidth=2;endArrow=none;endFill=0;startArrow=none;" parent="1" source="153" target="99" edge="1">
                    <mxGeometry relative="1" as="geometry">
                        <Array as="points">
                            <mxPoint x="235" y="150"/>
                        </Array>
                        <mxPoint x="235" y="205" as="sourcePoint"/>
                        <mxPoint x="235" y="140" as="targetPoint"/>
                    </mxGeometry>
                </mxCell>
                <mxCell id="148" style="edgeStyle=none;rounded=0;html=1;exitX=0;exitY=0.5;exitDx=0;exitDy=0;entryX=0;entryY=0.25;entryDx=0;entryDy=0;entryPerimeter=0;strokeWidth=2;endArrow=none;endFill=0;" parent="1" source="149" edge="1">
                    <mxGeometry relative="1" as="geometry">
                        <mxPoint x="585" y="185" as="targetPoint"/>
                        <Array as="points">
                            <mxPoint x="585" y="85"/>
                        </Array>
                    </mxGeometry>
                </mxCell>
                <mxCell id="152" style="edgeStyle=none;shape=connector;rounded=0;html=1;entryX=0.5;entryY=0;entryDx=0;entryDy=0;labelBackgroundColor=default;strokeColor=default;strokeWidth=2;fontFamily=Helvetica;fontSize=11;fontColor=default;endArrow=none;endFill=0;exitX=1;exitY=0.12;exitDx=0;exitDy=0;startArrow=none;" parent="1" source="149" target="119" edge="1">
                    <mxGeometry relative="1" as="geometry">
                        <mxPoint x="295" y="95" as="sourcePoint"/>
                        <Array as="points">
                            <mxPoint x="280" y="100"/>
                        </Array>
                    </mxGeometry>
                </mxCell>
                <mxCell id="149" value="" style="shape=mxgraph.electrical.electro-mechanical.twoWaySwitch;elSwitchState=2;strokeWidth=2;rotation=-180;" parent="1" vertex="1">
                    <mxGeometry x="345" y="65" width="120" height="40" as="geometry"/>
                </mxCell>
                <mxCell id="150" value="Input #1" style="text;html=1;strokeColor=none;fillColor=none;align=center;verticalAlign=middle;whiteSpace=wrap;rounded=0;strokeWidth=2;fontSize=14;" parent="1" vertex="1">
                    <mxGeometry x="345" y="40" width="120" height="20" as="geometry"/>
                </mxCell>
                <mxCell id="153" value="&lt;span style=&quot;color: rgba(0, 0, 0, 0); font-family: monospace; font-size: 0px; text-align: start;&quot;&gt;%3CmxGraphModel%3E%3Croot%3E%3CmxCell%20id%3D%220%22%2F%3E%3CmxCell%20id%3D%221%22%20parent%3D%220%22%2F%3E%3CmxCell%20id%3D%222%22%20value%3D%22%22%20style%3D%22pointerEvents%3D1%3BverticalLabelPosition%3Dbottom%3Bshadow%3D0%3Bdashed%3D0%3Balign%3Dcenter%3Bhtml%3D1%3BverticalAlign%3Dtop%3Bshape%3Dmxgraph.electrical.resistors.resistor_2%3BstrokeWidth%3D2%3B%22%20vertex%3D%221%22%20parent%3D%221%22%3E%3CmxGeometry%20x%3D%22440%22%20y%3D%22535%22%20width%3D%22120%22%20height%3D%2220%22%20as%3D%22geometry%22%2F%3E%3C%2FmxCell%3E%3C%2Froot%3E%3C%2FmxGraphModel%3E&lt;/span&gt;&lt;span style=&quot;color: rgba(0, 0, 0, 0); font-family: monospace; font-size: 0px; text-align: start;&quot;&gt;%3CmxGraphModel%3E%3Croot%3E%3CmxCell%20id%3D%220%22%2F%3E%3CmxCell%20id%3D%221%22%20parent%3D%220%22%2F%3E%3CmxCell%20id%3D%222%22%20value%3D%22%22%20style%3D%22pointerEvents%3D1%3BverticalLabelPosition%3Dbottom%3Bshadow%3D0%3Bdashed%3D0%3Balign%3Dcenter%3Bhtml%3D1%3BverticalAlign%3Dtop%3Bshape%3Dmxgraph.electrical.resistors.resistor_2%3BstrokeWidth%3D2%3B%22%20vertex%3D%221%22%20parent%3D%221%22%3E%3CmxGeometry%20x%3D%22440%22%20y%3D%22535%22%20width%3D%22120%22%20height%3D%2220%22%20as%3D%22geometry%22%2F%3E%3C%2FmxCell%3E%3C%2Froot%3E%3C%2FmxGraphModel%3E&lt;/span&gt;" style="ellipse;whiteSpace=wrap;html=1;aspect=fixed;strokeWidth=2;fillColor=#000000;" parent="1" vertex="1">
                    <mxGeometry x="230" y="145" width="10" height="10" as="geometry"/>
                </mxCell>
                <mxCell id="155" value="&lt;span style=&quot;color: rgba(0, 0, 0, 0); font-family: monospace; font-size: 0px; text-align: start;&quot;&gt;%3CmxGraphModel%3E%3Croot%3E%3CmxCell%20id%3D%220%22%2F%3E%3CmxCell%20id%3D%221%22%20parent%3D%220%22%2F%3E%3CmxCell%20id%3D%222%22%20value%3D%22%22%20style%3D%22pointerEvents%3D1%3BverticalLabelPosition%3Dbottom%3Bshadow%3D0%3Bdashed%3D0%3Balign%3Dcenter%3Bhtml%3D1%3BverticalAlign%3Dtop%3Bshape%3Dmxgraph.electrical.resistors.resistor_2%3BstrokeWidth%3D2%3B%22%20vertex%3D%221%22%20parent%3D%221%22%3E%3CmxGeometry%20x%3D%22440%22%20y%3D%22535%22%20width%3D%22120%22%20height%3D%2220%22%20as%3D%22geometry%22%2F%3E%3C%2FmxCell%3E%3C%2Froot%3E%3C%2FmxGraphModel%3E&lt;/span&gt;&lt;span style=&quot;color: rgba(0, 0, 0, 0); font-family: monospace; font-size: 0px; text-align: start;&quot;&gt;%3CmxGraphModel%3E%3Croot%3E%3CmxCell%20id%3D%220%22%2F%3E%3CmxCell%20id%3D%221%22%20parent%3D%220%22%2F%3E%3CmxCell%20id%3D%222%22%20value%3D%22%22%20style%3D%22pointerEvents%3D1%3BverticalLabelPosition%3Dbottom%3Bshadow%3D0%3Bdashed%3D0%3Balign%3Dcenter%3Bhtml%3D1%3BverticalAlign%3Dtop%3Bshape%3Dmxgraph.electrical.resistors.resistor_2%3BstrokeWidth%3D2%3B%22%20vertex%3D%221%22%20parent%3D%221%22%3E%3CmxGeometry%20x%3D%22440%22%20y%3D%22535%22%20width%3D%22120%22%20height%3D%2220%22%20as%3D%22geometry%22%2F%3E%3C%2FmxCell%3E%3C%2Froot%3E%3C%2FmxGraphModel%3E&lt;/span&gt;" style="ellipse;whiteSpace=wrap;html=1;aspect=fixed;strokeWidth=2;fillColor=#000000;" parent="1" vertex="1">
                    <mxGeometry x="275" y="175" width="10" height="10" as="geometry"/>
                </mxCell>
                <mxCell id="161" style="edgeStyle=none;shape=connector;rounded=0;html=1;exitX=1;exitY=0.5;exitDx=0;exitDy=0;exitPerimeter=0;entryX=0;entryY=0.57;entryDx=0;entryDy=0;entryPerimeter=0;labelBackgroundColor=default;strokeColor=default;strokeWidth=2;fontFamily=Helvetica;fontSize=11;fontColor=default;endArrow=none;endFill=0;" parent="1" target="111" edge="1">
                    <mxGeometry relative="1" as="geometry">
                        <Array as="points">
                            <mxPoint x="570" y="380"/>
                        </Array>
                        <mxPoint x="570" y="360" as="sourcePoint"/>
                    </mxGeometry>
                </mxCell>
                <mxCell id="163" value="B" style="rounded=0;whiteSpace=wrap;html=1;strokeWidth=2;glass=0;" parent="1" vertex="1">
                    <mxGeometry x="70" y="125" width="30" height="30" as="geometry"/>
                </mxCell>
                <mxCell id="164" value="0" style="rounded=0;whiteSpace=wrap;html=1;strokeWidth=2;glass=0;" parent="1" vertex="1">
                    <mxGeometry x="70" y="155" width="30" height="30" as="geometry"/>
                </mxCell>
                <mxCell id="165" value="1" style="rounded=0;whiteSpace=wrap;html=1;strokeWidth=2;glass=0;" parent="1" vertex="1">
                    <mxGeometry x="70" y="185" width="30" height="30" as="geometry"/>
                </mxCell>
                <mxCell id="166" value="1" style="rounded=0;whiteSpace=wrap;html=1;strokeWidth=2;glass=0;" parent="1" vertex="1">
                    <mxGeometry x="40" y="215" width="30" height="30" as="geometry"/>
                </mxCell>
                <mxCell id="167" value="1" style="rounded=0;whiteSpace=wrap;html=1;strokeWidth=2;glass=0;" parent="1" vertex="1">
                    <mxGeometry x="40" y="245" width="30" height="30" as="geometry"/>
                </mxCell>
                <mxCell id="168" value="1" style="rounded=0;whiteSpace=wrap;html=1;strokeWidth=2;glass=0;" parent="1" vertex="1">
                    <mxGeometry x="100" y="215" width="60" height="30" as="geometry"/>
                </mxCell>
                <mxCell id="169" value="0" style="rounded=0;whiteSpace=wrap;html=1;strokeWidth=2;glass=0;" parent="1" vertex="1">
                    <mxGeometry x="100" y="245" width="60" height="30" as="geometry"/>
                </mxCell>
                <mxCell id="170" value="0" style="rounded=0;whiteSpace=wrap;html=1;strokeWidth=2;glass=0;" parent="1" vertex="1">
                    <mxGeometry x="70" y="215" width="30" height="30" as="geometry"/>
                </mxCell>
                <mxCell id="171" value="1" style="rounded=0;whiteSpace=wrap;html=1;strokeWidth=2;glass=0;" parent="1" vertex="1">
                    <mxGeometry x="70" y="245" width="30" height="30" as="geometry"/>
                </mxCell>
                <mxCell id="174" value="" style="verticalLabelPosition=bottom;shadow=0;dashed=0;align=center;html=1;verticalAlign=top;shape=mxgraph.electrical.logic_gates.logic_gate;operation=and;rotation=90;strokeWidth=2;" vertex="1" parent="1">
                    <mxGeometry x="520" y="185" width="100" height="60" as="geometry"/>
                </mxCell>
                <mxCell id="178" value="" style="verticalLabelPosition=bottom;shadow=0;dashed=0;align=center;html=1;verticalAlign=top;shape=mxgraph.electrical.logic_gates.inverter_2;strokeWidth=2;rotation=90;" vertex="1" parent="1">
                    <mxGeometry x="520" y="280" width="100" height="60" as="geometry"/>
                </mxCell>
            </root>
        </mxGraphModel>
    </diagram>
</mxfile>